<svg xmlns="http://www.w3.org/2000/svg" viewBox="0 0 24 24" width="24" height="24">
  <path fill="currentColor" d="M4 8.656854C4.552285 8.656854 5 9.104569 5 9.656854V12.166667C5.56046 11.904633 6.152836 11.717157 6.762003 11.609025C7.305787 11.512499 7.824861 11.875073 7.921387 12.418857C8.017913 12.962641 7.655339 13.481715 7.111555 13.578242C6.348172 13.713748 5.6259 14.022079 5 14.479643V22C5 22.552285 4.552285 23 4 23C3.447715 23 3 22.552285 3 22V9.656854C3 9.104569 3.447715 8.656854 4 8.656854ZM8.185056 1.502418C9.833451 1.545498 11.415169 2.162329 12.657534 3.246575C13.583527 4.054715 14.770955 4.5 16 4.5C17.229045 4.5 18.416473 4.054715 19.342466 3.246575C19.637916 2.988728 20.056809 2.927363 20.413803 3.089634C20.770797 3.251904 21 3.607857 21 4V14C21 14.552285 20.552285 15 20 15C19.447715 15 19 14.552285 19 14V5.833333C18.060838 6.272422 17.036738 6.5 16 6.5C14.287396 6.5 12.632784 5.879521 11.342466 4.753425C10.450886 3.975319 9.315771 3.532651 8.132805 3.501735C7.580709 3.487306 7.144843 3.028047 7.159272 2.475951C7.173701 1.923855 7.63296 1.487989 8.185056 1.502418ZM3.292893 3.292893C3.683418 2.902369 4.316582 2.902369 4.707107 3.292893L20.707107 19.292893C21.097631 19.683418 21.097631 20.316582 20.707107 20.707107C20.316582 21.097631 19.683418 21.097631 19.292893 20.707107L3.292893 4.707107C2.902369 4.316582 2.902369 3.683418 3.292893 3.292893Z"/>
</svg>
